<?xml version="1.0" encoding="utf-8"?>
<!-- Generator: Adobe Illustrator 23.0.6, SVG Export Plug-In . SVG Version: 6.00 Build 0)  -->
<svg version="1.1" id="Laag_1" xmlns="http://www.w3.org/2000/svg" xmlns:xlink="http://www.w3.org/1999/xlink" x="0px" y="0px"
	 viewBox="0 0 101 40" style="enable-background:new 0 0 101 40;" xml:space="preserve">
<style type="text/css">
	.st0{clip-path:url(#SVGID_2_);}
	.st1{fill:#1D71B8;}
	.st2{fill:#FFFFFF;}
</style>
<g>
	<defs>
		<rect id="SVGID_1_" x="0.5" width="100" height="40"/>
	</defs>
	<clipPath id="SVGID_2_">
		<use xlink:href="#SVGID_1_"  style="overflow:visible;"/>
	</clipPath>
	<g class="st0">
		<path class="st1" d="M69.4,38.9h-2.9v-7.8h3c0.8,0,1.5,0.2,2.1,0.5c0.6,0.3,1.1,0.8,1.4,1.3c0.3,0.6,0.5,1.3,0.5,2.1
			c0,0.8-0.2,1.5-0.5,2.1c-0.3,0.6-0.8,1-1.4,1.3C71,38.7,70.3,38.9,69.4,38.9z M68.2,37.5h1.1c0.5,0,1-0.1,1.3-0.3
			c0.4-0.2,0.6-0.4,0.8-0.8c0.2-0.4,0.3-0.8,0.3-1.4c0-0.6-0.1-1-0.3-1.4c-0.2-0.4-0.4-0.6-0.8-0.8c-0.4-0.2-0.8-0.3-1.3-0.3h-1.1
			V37.5z"/>
		<path class="st1" d="M82.4,35c0,0.8-0.2,1.6-0.5,2.2c-0.3,0.6-0.8,1.1-1.4,1.4c-0.6,0.3-1.2,0.5-2,0.5c-0.7,0-1.4-0.2-2-0.5
			c-0.6-0.3-1-0.8-1.4-1.4c-0.3-0.6-0.5-1.3-0.5-2.2c0-0.8,0.2-1.6,0.5-2.2c0.3-0.6,0.8-1,1.4-1.4c0.6-0.3,1.2-0.5,2-0.5
			c0.7,0,1.4,0.2,2,0.5c0.6,0.3,1.1,0.8,1.4,1.4C82.2,33.4,82.4,34.1,82.4,35z M80.6,35c0-0.5-0.1-1-0.3-1.4
			c-0.2-0.4-0.4-0.7-0.7-0.9c-0.3-0.2-0.7-0.3-1.1-0.3c-0.4,0-0.8,0.1-1.1,0.3c-0.3,0.2-0.6,0.5-0.7,0.9c-0.2,0.4-0.3,0.8-0.3,1.4
			s0.1,1,0.3,1.4c0.2,0.4,0.4,0.7,0.7,0.9c0.3,0.2,0.7,0.3,1.1,0.3c0.4,0,0.8-0.1,1.1-0.3c0.3-0.2,0.6-0.5,0.7-0.9
			C80.5,36,80.6,35.5,80.6,35z"/>
		<path class="st1" d="M91,33.8h-1.8c0-0.2-0.1-0.4-0.2-0.6c-0.1-0.2-0.2-0.3-0.4-0.4c-0.2-0.1-0.3-0.2-0.5-0.3
			c-0.2-0.1-0.4-0.1-0.7-0.1c-0.4,0-0.8,0.1-1.1,0.3c-0.3,0.2-0.6,0.5-0.7,0.9c-0.2,0.4-0.3,0.8-0.3,1.4c0,0.6,0.1,1,0.3,1.4
			c0.2,0.4,0.4,0.7,0.7,0.9c0.3,0.2,0.7,0.3,1.1,0.3c0.2,0,0.5,0,0.7-0.1c0.2-0.1,0.4-0.1,0.5-0.3c0.2-0.1,0.3-0.3,0.4-0.4
			c0.1-0.2,0.2-0.3,0.2-0.6l1.8,0c0,0.4-0.2,0.7-0.3,1c-0.2,0.3-0.4,0.6-0.7,0.9c-0.3,0.3-0.7,0.5-1.1,0.6c-0.4,0.1-0.9,0.2-1.4,0.2
			c-0.7,0-1.4-0.2-2-0.5c-0.6-0.3-1-0.8-1.4-1.4c-0.3-0.6-0.5-1.3-0.5-2.2c0-0.8,0.2-1.6,0.5-2.2c0.3-0.6,0.8-1,1.4-1.4
			c0.6-0.3,1.2-0.5,2-0.5c0.5,0,0.9,0.1,1.3,0.2c0.4,0.1,0.8,0.3,1.1,0.6c0.3,0.2,0.6,0.5,0.8,0.9C90.8,33,90.9,33.4,91,33.8z"/>
		<path class="st1" d="M96.7,33.3c0-0.3-0.2-0.5-0.4-0.7s-0.6-0.3-1-0.3c-0.3,0-0.5,0-0.7,0.1c-0.2,0.1-0.3,0.2-0.5,0.3
			C94,32.9,94,33.1,94,33.2c0,0.1,0,0.3,0.1,0.4c0.1,0.1,0.2,0.2,0.3,0.3c0.1,0.1,0.3,0.1,0.4,0.2c0.2,0.1,0.3,0.1,0.5,0.1l0.7,0.2
			c0.4,0.1,0.7,0.2,1,0.3c0.3,0.1,0.6,0.3,0.8,0.5c0.2,0.2,0.4,0.4,0.5,0.7c0.1,0.3,0.2,0.5,0.2,0.9c0,0.5-0.1,0.9-0.4,1.2
			c-0.3,0.3-0.6,0.6-1.1,0.8C96.5,38.9,96,39,95.3,39c-0.7,0-1.2-0.1-1.7-0.3c-0.5-0.2-0.9-0.5-1.2-0.9C92.1,37.5,92,37,92,36.4h1.7
			c0,0.3,0.1,0.5,0.2,0.7c0.1,0.2,0.3,0.3,0.6,0.4c0.2,0.1,0.5,0.1,0.8,0.1c0.3,0,0.6,0,0.8-0.1c0.2-0.1,0.4-0.2,0.5-0.3
			c0.1-0.1,0.2-0.3,0.2-0.5c0-0.2-0.1-0.3-0.2-0.4c-0.1-0.1-0.3-0.2-0.5-0.3c-0.2-0.1-0.5-0.2-0.8-0.2l-0.9-0.2
			c-0.7-0.2-1.2-0.4-1.7-0.7c-0.4-0.3-0.6-0.8-0.6-1.4c0-0.5,0.1-0.9,0.4-1.2c0.3-0.4,0.6-0.6,1.1-0.8c0.5-0.2,1-0.3,1.6-0.3
			c0.6,0,1.1,0.1,1.6,0.3c0.5,0.2,0.8,0.5,1.1,0.8c0.3,0.4,0.4,0.8,0.4,1.2H96.7z"/>
		<g>
			<g>
				<g>
					<path class="st2" d="M7.1,15.4C6,15.4,4.7,15.9,4,17l-0.2-1.3H1.6v13.7H4v-5.2c0.7,1.1,2.2,1.4,3.2,1.4c3.1,0,4.9-2.2,4.9-5.1
						C12.1,17.7,10.1,15.4,7.1,15.4z M7,23.3c-1.6,0-2.8-1.2-2.8-2.8c0-1.5,1-2.8,2.8-2.8c1.7,0,2.8,1.2,2.8,2.8
						C9.7,22,8.6,23.3,7,23.3z M19.3,15.4c-0.1,0-0.2,0-0.3,0c-0.3,0-0.6,0-0.9,0.1c-0.7,0.1-1.3,0.5-1.9,1.3l-0.2-1.1h-2.2v9.7h2.4
						v-5.1c0-1.4,0.7-2.1,1.6-2.4c0.2-0.1,0.5-0.1,0.8-0.1c0.1,0,0.2,0,0.2,0c0.6,0,1.1,0.3,1.5,0.6l0.5-1l0.5-0.9l0.1-0.2
						C21,15.9,20.2,15.5,19.3,15.4z"/>
				</g>
				<g>
					<path class="st1" d="M27,15.5c-1.6,0-2.9,0.6-3.8,1.6c1.1,0.2,2.4,0.4,3.8,0.4c1.4,0,2.7-0.1,3.8-0.3
						C29.9,16.1,28.6,15.5,27,15.5z M27,24.2c-1.4,0-2.7-0.1-3.9-0.3c0.9,1,2.2,1.7,3.9,1.7s3-0.7,3.9-1.7
						C29.7,24.1,28.4,24.2,27,24.2z M27,21.2c-1.9,0-3.6-0.2-5-0.6c0,0.8,0.2,1.5,0.4,2.1c1.3,0.3,2.8,0.5,4.6,0.5
						c1.8,0,3.3-0.2,4.6-0.5c0.3-0.6,0.4-1.4,0.4-2.1C30.6,21,28.9,21.2,27,21.2z M31.4,17.9c-1.3,0.3-2.8,0.4-4.4,0.4
						c-1.6,0-3.1-0.2-4.4-0.5c-0.3,0.5-0.5,1.1-0.6,1.7c1.3,0.4,3,0.6,5,0.6c1.9,0,3.6-0.3,5-0.6C31.9,19,31.7,18.4,31.4,17.9z"/>
				</g>
				<g>
					<path class="st2" d="M41.4,11.6V17c-0.6-1-2.2-1.6-3.2-1.6c-1.2,0-2.3,0.3-3.2,1c0,0,0,0,0,0c-0.8,0.6-1.4,1.5-1.6,2.7
						c-0.1,0.3-0.1,0.7-0.1,1.1c0,0.1,0,0.2,0,0.3c0,0.6,0.1,1.1,0.2,1.6c0.1,0.3,0.2,0.6,0.3,0.9c0.8,1.7,2.5,2.6,4.5,2.6
						c1.2,0,2.4-0.4,3.1-1.6l0.2,1.3h2.2V11.6C43.8,11.6,41.4,11.6,41.4,11.6z M38.4,23.4c-1.2,0-2.2-0.7-2.6-1.9
						c-0.1-0.3-0.1-0.6-0.1-1c0-0.1,0-0.2,0-0.2c0.1-1.6,1.3-2.6,2.7-2.6c1.5,0,2.8,1.1,2.8,2.8C41.2,22.2,39.9,23.4,38.4,23.4z
						 M52.9,15.7v5c0,1.5-1,2.7-2.5,2.7c-1.5,0-2.3-1.1-2.3-2.6v-5.1h-2.4v5.1c0,3,1.7,4.8,4,4.8c1.4,0,2.3-0.5,3.3-1.5l0.2,1.3h2.1
						v-9.7H52.9z M64.1,22.5c-0.6,0.6-1.4,0.8-2.1,0.8c-1.5,0-2.8-1-2.8-2.8c0-1.7,1.2-2.9,2.8-2.9c0.7,0,1.4,0.3,1.9,0.8l1.5-1.6
						c-1.1-1-2.1-1.4-3.5-1.4c-2.8,0-5.1,1.7-5.1,5.1c0,3.4,2.3,5.1,5.1,5.1c1.4,0,2.6-0.4,3.7-1.5L64.1,22.5z M72.6,23
						c-0.4,0.2-0.8,0.3-1.2,0.3c-0.7,0-1.3-0.5-1.3-1.4v-4.2h2.7v-2.1h-2.7v-2.8l-2.4,0.3v2.5H66v2.1h1.8v4.2c0,2.4,1.4,3.6,3.5,3.5
						c0.7,0,1.3-0.1,2-0.4L72.6,23L72.6,23z"/>
				</g>
				<g>
					<path class="st1" d="M84.8,11.6v6.2c-0.8-1.6-2.4-2.3-4-2.3c-2.7,0-4.9,1.8-4.9,5c0,3.2,2.1,5,4.9,5c1.7,0,3.2-0.8,4-2.3v2.1
						h0.9V11.6H84.8z M80.8,24.6c-2.2,0-4-1.4-4-4.1c0-2.7,1.8-4.1,4-4.1c2.2,0,4,1.7,4,4.1C84.8,22.9,83.1,24.6,80.8,24.6z
						 M93.5,15.5c-1.7,0-3.2,0.7-4,2.3v-6.2h-0.9v13.8h0.9v-2.1c0.8,1.5,2.4,2.3,4.1,2.3c2.7,0,4.9-1.8,4.9-5
						C98.4,17.3,96.2,15.5,93.5,15.5L93.5,15.5z M93.5,24.6c-2.3,0-4-1.7-4-4.1c0-2.4,1.7-4.1,4-4.1c2.2,0,4,1.4,4,4.1
						C97.5,23.2,95.7,24.6,93.5,24.6z"/>
				</g>
			</g>
		</g>
	</g>
</g>
</svg>
