<?xml version="1.0" encoding="utf-8"?>
<!-- Generator: Adobe Illustrator 23.0.6, SVG Export Plug-In . SVG Version: 6.00 Build 0)  -->
<svg version="1.1" id="Laag_1" xmlns="http://www.w3.org/2000/svg" xmlns:xlink="http://www.w3.org/1999/xlink" x="0px" y="0px"
	 viewBox="0 0 101 40" style="enable-background:new 0 0 101 40;" xml:space="preserve">
<style type="text/css">
	.st0{clip-path:url(#SVGID_2_);}
	.st1{fill:#FFFFFF;}
	.st2{fill:#1D71B8;}
</style>
<g>
	<defs>
		<rect id="SVGID_1_" x="0.5" width="100" height="40"/>
	</defs>
	<clipPath id="SVGID_2_">
		<use xlink:href="#SVGID_1_"  style="overflow:visible;"/>
	</clipPath>
	<g class="st0">
		<g>
			<g>
				<path class="st1" d="M7.3,15c-1.1,0-2.4,0.5-3.2,1.6L4,15.2H1.7V29h2.4v-5.2c0.7,1.1,2.2,1.4,3.2,1.4c3.1,0,4.9-2.3,4.9-5.1
					C12.3,17.2,10.3,15,7.3,15z M7.1,22.8c-1.6,0-2.8-1.2-2.8-2.8c0-1.5,1-2.8,2.8-2.8c1.7,0,2.8,1.2,2.8,2.8
					C9.9,21.6,8.8,22.8,7.1,22.8z M19.6,14.9c-0.1,0-0.2,0-0.3,0c-0.3,0-0.6,0-0.9,0.1c-0.7,0.1-1.3,0.5-1.9,1.3l-0.2-1.1h-2.2v9.8
					h2.4v-5.1c0-1.4,0.7-2.1,1.7-2.4c0.2-0.1,0.5-0.1,0.8-0.1c0.1,0,0.2,0,0.2,0c0.7,0,1.1,0.3,1.5,0.6l0.5-1l0.5-0.9l0.1-0.2
					C21.3,15.4,20.5,15,19.6,14.9z"/>
			</g>
			<g>
				<path class="st2" d="M27.3,15c-1.6,0-2.9,0.6-3.8,1.6c1.1,0.2,2.4,0.4,3.8,0.4c1.4,0,2.7-0.1,3.8-0.4C30.2,15.6,28.9,15,27.3,15
					z M27.3,23.8c-1.4,0-2.7-0.1-3.9-0.4c0.9,1,2.2,1.7,3.9,1.7s3-0.7,3.9-1.7C30,23.7,28.7,23.8,27.3,23.8z M27.3,20.8
					c-1.9,0-3.6-0.2-5.1-0.6c0,0.8,0.2,1.5,0.4,2.1c1.3,0.3,2.9,0.5,4.6,0.5c1.8,0,3.3-0.2,4.6-0.5c0.3-0.6,0.4-1.4,0.4-2.1
					C30.9,20.5,29.2,20.8,27.3,20.8z M31.7,17.4c-1.3,0.3-2.8,0.5-4.4,0.5c-1.6,0-3.1-0.2-4.4-0.5c-0.3,0.5-0.5,1.1-0.6,1.7
					c1.4,0.4,3.1,0.6,5,0.6c1.9,0,3.6-0.3,5-0.6C32.2,18.5,32,18,31.7,17.4z"/>
			</g>
			<g>
				<path class="st1" d="M41.8,11.1v5.4c-0.6-1-2.2-1.6-3.2-1.6c-1.2,0-2.3,0.3-3.2,1c0,0,0,0,0,0c-0.8,0.6-1.4,1.5-1.6,2.7
					c-0.1,0.3-0.1,0.7-0.1,1.1c0,0.1,0,0.2,0,0.3c0,0.6,0.1,1.1,0.2,1.6c0.1,0.3,0.2,0.6,0.3,0.9c0.8,1.7,2.5,2.6,4.5,2.6
					c1.2,0,2.4-0.4,3.1-1.6l0.2,1.3h2.3V11.1C44.2,11.1,41.8,11.1,41.8,11.1z M38.8,22.9c-1.2,0-2.3-0.7-2.6-1.9
					c-0.1-0.3-0.1-0.6-0.1-1c0-0.1,0-0.2,0-0.2c0.1-1.6,1.3-2.6,2.8-2.6c1.5,0,2.8,1.1,2.8,2.8C41.6,21.8,40.3,22.9,38.8,22.9z
					 M53.4,15.2v5c0,1.5-1,2.7-2.5,2.7c-1.5,0-2.4-1.1-2.4-2.6v-5.1h-2.4v5.1c0,3,1.7,4.8,4,4.8c1.4,0,2.3-0.5,3.3-1.5l0.2,1.3h2.2
					v-9.8H53.4z M64.7,22.1c-0.6,0.6-1.4,0.8-2.1,0.8c-1.5,0-2.8-1-2.8-2.8c0-1.7,1.2-2.9,2.8-2.9c0.7,0,1.4,0.3,2,0.8l1.5-1.6
					c-1.1-1-2.1-1.4-3.5-1.4c-2.8,0-5.2,1.7-5.2,5.2c0,3.5,2.4,5.2,5.2,5.2c1.4,0,2.6-0.4,3.8-1.5L64.7,22.1z M73.2,22.6
					c-0.4,0.2-0.8,0.3-1.2,0.3c-0.8,0-1.3-0.5-1.3-1.4v-4.2h2.7v-2.1h-2.7v-2.8l-2.4,0.3v2.5h-1.8v2.1h1.8v4.2
					c0,2.4,1.4,3.6,3.5,3.6c0.7,0,1.3-0.1,2-0.4L73.2,22.6L73.2,22.6z"/>
			</g>
			<g>
				<path class="st2" d="M85.5,11.1v6.2c-0.8-1.6-2.4-2.3-4.1-2.3c-2.7,0-4.9,1.8-4.9,5c0,3.2,2.2,5,4.9,5c1.7,0,3.3-0.8,4.1-2.3
					v2.2h1V11.1H85.5z M81.5,24.1c-2.2,0-4-1.4-4-4.1c0-2.7,1.8-4.1,4-4.1c2.3,0,4,1.7,4,4.1C85.5,22.5,83.8,24.1,81.5,24.1z
					 M94.2,15c-1.7,0-3.3,0.7-4.1,2.3v-6.2h-0.9v13.9h0.9v-2.2c0.8,1.5,2.4,2.3,4.1,2.3c2.7,0,4.9-1.8,4.9-5
					C99.2,16.8,97,15,94.2,15L94.2,15z M94.2,24.1c-2.3,0-4-1.7-4-4.1c0-2.4,1.7-4.1,4-4.1c2.2,0,4,1.4,4,4.1
					C98.2,22.7,96.4,24.1,94.2,24.1z"/>
			</g>
		</g>
	</g>
</g>
</svg>
