<?xml version="1.0" encoding="utf-8"?>
<!-- Generator: Adobe Illustrator 23.0.6, SVG Export Plug-In . SVG Version: 6.00 Build 0)  -->
<svg version="1.1" id="Laag_1" xmlns="http://www.w3.org/2000/svg" xmlns:xlink="http://www.w3.org/1999/xlink" x="0px" y="0px"
	 viewBox="0 0 162 57" style="enable-background:new 0 0 162 57;" xml:space="preserve">
<style type="text/css">
	.st0{fill:#111111;}
	.st1{fill:#1D71B8;}
</style>
<g>
	<g>
		<g>
			<path class="st0" d="M9.9,20c-1.8,0-4,0.8-5.2,2.6l-0.3-2.2H0.7v22.9h4v-8.6c1.1,1.8,3.7,2.3,5.4,2.3c5.2,0,8.1-3.7,8.1-8.4
				C18.2,23.7,14.9,20,9.9,20z M9.6,33.1C6.9,33.1,5,31,5,28.5s1.7-4.6,4.6-4.6c2.9,0,4.6,2.1,4.6,4.6S12.3,33.1,9.6,33.1z M30.2,20
				c-0.2,0-0.3,0-0.5,0c-0.5,0-1,0-1.5,0.1c-1.1,0.2-2.2,0.8-3.1,2.2l-0.3-1.9h-3.7v16.1h4V28c0-2.3,1.2-3.5,2.7-3.9
				c0.4-0.1,0.8-0.2,1.3-0.2c0.1,0,0.3,0,0.4,0c1.1,0.1,1.8,0.4,2.5,1l0.9-1.6l0.7-1.4l0.2-0.4C33,20.7,31.6,20.1,30.2,20z"/>
		</g>
		<g>
			<path class="st1" d="M42.9,20.1c-2.7,0-4.8,1-6.2,2.6c1.8,0.4,4,0.6,6.3,0.6c2.3,0,4.4-0.2,6.3-0.6
				C47.7,21.1,45.5,20.1,42.9,20.1z M42.9,34.6c-2.3,0-4.5-0.2-6.5-0.6c1.4,1.7,3.7,2.8,6.5,2.8s5-1.1,6.5-2.8
				C47.4,34.4,45.3,34.6,42.9,34.6z M42.9,29.6c-3.1,0-6-0.4-8.4-1c0,1.3,0.3,2.5,0.7,3.5c2.1,0.6,4.7,0.9,7.6,0.9
				c2.9,0,5.5-0.3,7.6-0.9c0.5-1.1,0.7-2.3,0.7-3.5C48.9,29.3,46.1,29.6,42.9,29.6z M50.2,24.1c-2.1,0.5-4.6,0.7-7.3,0.7
				c-2.7,0-5.2-0.3-7.3-0.7c-0.5,0.9-0.8,1.8-1,2.8c2.2,0.7,5.1,1.1,8.3,1.1c3.2,0,6-0.4,8.3-1.1C51,26,50.7,25,50.2,24.1z"/>
		</g>
		<g>
			<path class="st0" d="M66.8,13.7v8.9c-0.9-1.7-3.6-2.6-5.3-2.6c-2,0-3.9,0.5-5.3,1.6c0,0,0,0-0.1,0c-1.3,1-2.3,2.5-2.7,4.4
				c-0.1,0.6-0.2,1.2-0.2,1.8c0,0.2,0,0.3,0,0.5c0,0.9,0.1,1.8,0.3,2.6c0.1,0.5,0.3,1,0.6,1.5c1.3,2.7,4.1,4.3,7.4,4.3
				c2,0,4-0.7,5.2-2.6l0.3,2.2h3.7V13.7C70.8,13.7,66.8,13.7,66.8,13.7z M61.9,33.2c-2,0-3.7-1.2-4.3-3.1c-0.2-0.5-0.2-1-0.2-1.6
				c0-0.1,0-0.3,0-0.4c0.2-2.7,2.1-4.3,4.6-4.3c2.5,0,4.7,1.9,4.7,4.7C66.6,31.3,64.4,33.2,61.9,33.2z M86,20.4v8.2
				c0,2.5-1.7,4.5-4.1,4.5c-2.5,0-3.9-1.9-3.9-4.3v-8.4h-4v8.5c0,5,2.8,7.9,6.7,7.9c2.3,0,3.8-0.8,5.5-2.4l0.3,2.2H90V20.4H86z
				 M104.6,31.8c-1,1-2.3,1.3-3.5,1.3c-2.5,0-4.6-1.6-4.6-4.7c0-2.8,2-4.8,4.6-4.8c1.1,0,2.3,0.4,3.2,1.3l2.5-2.6
				c-1.8-1.7-3.5-2.4-5.8-2.4c-4.7,0-8.6,2.8-8.6,8.5c0,5.7,3.9,8.5,8.6,8.5c2.4,0,4.3-0.7,6.2-2.5L104.6,31.8z M118.7,32.6
				c-0.6,0.3-1.3,0.5-1.9,0.5c-1.2,0-2.1-0.8-2.1-2.3v-7h4.5v-3.4h-4.4v-4.6l-4,0.4v4.2h-3v3.4h3v7c0,4,2.3,6,5.8,5.9
				c1.2,0,2.2-0.2,3.3-0.7L118.7,32.6L118.7,32.6z"/>
		</g>
		<g>
			<path class="st1" d="M139.1,13.6v10.3c-1.3-2.6-3.9-3.8-6.7-3.8c-4.5,0-8.1,3-8.1,8.3c0,5.4,3.6,8.3,8.1,8.3
				c2.7,0,5.4-1.4,6.7-3.8v3.6h1.6V13.6H139.1z M132.5,35.2c-3.6,0-6.6-2.3-6.6-6.8c0-4.5,3-6.8,6.6-6.8c3.7,0,6.6,2.7,6.6,6.8
				C139.1,32.4,136.2,35.2,132.5,35.2z M153.5,20.1c-2.8,0-5.4,1.2-6.7,3.8V13.6h-1.6v22.9h1.6V33c1.3,2.4,4,3.8,6.7,3.8
				c4.5,0,8.1-3,8.1-8.3C161.7,23.1,158.1,20.1,153.5,20.1L153.5,20.1z M153.5,35.2c-3.8,0-6.6-2.8-6.6-6.8c0-4,2.9-6.8,6.6-6.8
				c3.6,0,6.6,2.3,6.6,6.8C160.1,32.9,157.1,35.2,153.5,35.2z"/>
		</g>
	</g>
</g>
</svg>
