<?xml version="1.0" encoding="utf-8"?>
<!-- Generator: Adobe Illustrator 23.0.6, SVG Export Plug-In . SVG Version: 6.00 Build 0)  -->
<svg version="1.1" id="Laag_1" xmlns="http://www.w3.org/2000/svg" xmlns:xlink="http://www.w3.org/1999/xlink" x="0px" y="0px"
	 viewBox="0 0 101 40" style="enable-background:new 0 0 101 40;" xml:space="preserve">
<style type="text/css">
	.st0{fill:#FFFFFF;}
	.st1{fill:#1D71B8;}
	.st2{clip-path:url(#SVGID_2_);}
</style>
<g>
	<g>
		<g>
			<path class="st0" d="M505.7,384.4c-94,0-204.7,40.2-268.4,132.4l-13.5-114H32.5v1172.5h204.7v-442.8
				c58.6,90.6,187.8,117.4,275.1,117.4c265,0,417.6-191.2,417.6-432.8C930,573.8,760.6,384.4,505.7,384.4L505.7,384.4z M490.5,1052
				c-139.3,0-234.9-105.7-234.9-234.9s87.1-234.9,234.9-234.9c147.6,0,234.9,105.7,234.9,234.9S629.8,1052,490.5,1052z
				 M1545.5,382.2c-8.8-0.8-17.6-1.1-26.5-1.1c-24.9,0-50.2,1.3-74.8,6c-58.1,10.7-113.7,39.6-158.5,111.4l-15.1-95.6h-189.4V1230
				h204.6V793.7c0-120.5,61.6-181.4,140.4-201.6c21-5.5,43.3-8.1,66-8.1c7,0,13.7,0.2,20,0.7c55.2,3.4,90.1,21.5,127.5,53.1
				l43.8-84.4l38.4-74.1l10.1-19.4C1691.4,419.3,1621.2,388.2,1545.5,382.2L1545.5,382.2z"/>
		</g>
		<g>
			<path class="st1" d="M2198.2,386.1c-136.5,0-246.3,52.3-320.4,135.5c94.6,19.1,203.6,30.3,323,30.3
				c118.6,0,226.7-11.1,320.9-29.8C2446.3,438.5,2334.9,386.1,2198.2,386.1L2198.2,386.1z M2200.8,1133.5
				c-120.4,0-232.6-10.6-332.6-29.8c73.9,88.8,187.3,144.6,331.6,144.6s258.2-55.9,332.4-144.5
				C2432.6,1123.1,2320.7,1133.5,2200.8,1133.5L2200.8,1133.5z M2200.8,876.3c-161.2,0-308.2-18.9-430.1-52.3
				c0.7,65.1,13.7,126.7,37.6,181.8c109.3,28.5,242.7,46.3,392.5,46.3c149.7,0,283.1-17.8,392.2-46.3
				c24.1-55.1,37.1-116.6,37.9-181.8C2509,857.4,2362.1,876.3,2200.8,876.3L2200.8,876.3z M2574.5,595
				c-109.8,24.6-236.5,38.3-373.6,38.3c-137.6,0-264.8-13.8-374.9-38.4c-24.4,44-41,93-49.3,145.1c114.7,33.4,259.6,54.9,424.3,54.9
				c164.5,0,309.3-21.5,424-54.9C2616.5,687.9,2599.4,638.8,2574.5,595L2574.5,595z"/>
		</g>
		<g>
			<path class="st0" d="M3426.3,57.2v458c-48.7-85.5-184.5-132.6-271.8-132.6c-104.7,0-197.9,27.9-269.9,82.6
				c-0.8,0.7-1.6,1.3-2.6,2c-67.3,52.4-115.5,128.7-136.5,228.3c-6.4,29.6-10.3,61.2-11.6,94.8c-0.3,8.3-0.5,16.6-0.5,25.1
				c0,48.7,5.9,93.8,16.9,135c7.3,27.7,16.9,53.6,28.8,77.7c68.9,141,209.6,220.2,380.3,220.2c100.7,0,202.9-33.6,266.8-132.6
				l13.4,114.2h191.2V57.2H3426.3L3426.3,57.2z M3172.9,1058.7c-104.1,0-191.2-62.7-222.3-160.9c-8.1-25.2-12.5-52.9-12.5-82.4
				c0-7,0.2-13.8,0.7-20.5c9.1-137.1,109.5-221,234.2-221c129.2,0,239.9,97.4,239.9,241.5C3412.8,964.7,3302,1058.7,3172.9,1058.7
				L3172.9,1058.7z M4411,402.8v422.7c0,125.9-85.7,231.6-211.4,231.6c-130.8,0-199.7-95.6-199.7-221.5V402.8h-204.6v434.4
				c0,256.7,144.3,406,342.2,406c115.8,0,194.6-40.2,280.1-124.1l13.4,112.4h183V402.8H4411z M5367.2,990
				c-50.3,50.3-115.8,68.7-181.3,68.7c-127.4,0-234.9-83.9-234.9-241.5c0-144.3,100.7-245,238.3-245c57,0,117.4,21.8,166.1,65.5
				l129.2-135.8c-90.6-88.9-181.3-122.5-298.7-122.5c-239.7,0-439.4,144.1-439.4,437.8c0,293.5,199.7,437.8,439.4,437.8
				c122.5,0,223.1-37,318.7-130.8L5367.2,990z M6088.6,1030.2c-30.3,15.1-67.1,25.1-99,25.1c-63.7,0-107.3-38.6-107.3-117.4V580.7
				H6112V404.5h-228.2V169.6l-204.6,21.8v213h-154.4v176.2h154.4v357.2c0,206.4,117.4,308.8,296.9,302
				c62.1-1.6,110.6-11.7,169.4-35.2L6088.6,1030.2L6088.6,1030.2z"/>
		</g>
		<g>
			<path class="st1" d="M7134.7,55.6v526.7c-67.1-134.2-201.3-194.6-343.8-194.6c-231.4,0-416,154.4-416,427.7
				c0,275.3,182.7,427.9,414.3,427.9c140.9,0,276.7-70.5,345.5-196.3v182.9h80.6V55.6H7134.7z M6794.2,1162.8
				c-186.2,0-338.8-117.4-338.8-347.4c0-233.1,152.6-348.9,338.8-348.9c191.4,0,338.9,140.9,338.9,347.2
				C7133.1,1020.1,6988.8,1162.8,6794.2,1162.8z M7876.3,387.7c-142.7,0-276.9,60.4-344,194.6V55.6h-80.5v1174.3h80.5V1047
				c68.9,125.7,204.7,196.3,345.6,196.3c231.6,0,414.3-152.6,414.3-427.9C8292.3,542.1,8107.7,387.7,7876.3,387.7L7876.3,387.7z
				 M7872.9,1162.8c-194.5,0-338.8-142.7-338.8-349c0-206.4,147.6-347.2,338.8-347.2c186.3,0,338.9,115.8,338.9,348.9
				C8211.8,1045.4,8059.2,1162.8,7872.9,1162.8z"/>
		</g>
	</g>
</g>
<g>
	<defs>
		<rect id="SVGID_1_" x="-0.2" y="0" width="100" height="40"/>
	</defs>
	<clipPath id="SVGID_2_">
		<use xlink:href="#SVGID_1_"  style="overflow:visible;"/>
	</clipPath>
	<g class="st2">
		<path class="st1" d="M68.8,38.9h-2.9v-7.8h3c0.8,0,1.5,0.2,2.1,0.5c0.6,0.3,1.1,0.8,1.4,1.3c0.3,0.6,0.5,1.3,0.5,2.1
			c0,0.8-0.2,1.5-0.5,2.1c-0.3,0.6-0.8,1-1.4,1.3C70.3,38.8,69.6,38.9,68.8,38.9z M67.6,37.5h1.1c0.5,0,1-0.1,1.3-0.3
			c0.4-0.2,0.6-0.4,0.8-0.8c0.2-0.4,0.3-0.8,0.3-1.4c0-0.6-0.1-1-0.3-1.4c-0.2-0.4-0.4-0.6-0.8-0.8c-0.4-0.2-0.8-0.3-1.3-0.3h-1.1
			V37.5z"/>
		<path class="st1" d="M81.7,35c0,0.8-0.2,1.6-0.5,2.2c-0.3,0.6-0.8,1.1-1.4,1.4c-0.6,0.3-1.2,0.5-2,0.5c-0.7,0-1.4-0.2-2-0.5
			c-0.6-0.3-1-0.8-1.4-1.4C74.1,36.6,74,35.9,74,35c0-0.8,0.2-1.6,0.5-2.2c0.3-0.6,0.8-1,1.4-1.4c0.6-0.3,1.2-0.5,2-0.5
			c0.7,0,1.4,0.2,2,0.5c0.6,0.3,1.1,0.8,1.4,1.4C81.5,33.5,81.7,34.2,81.7,35z M79.9,35c0-0.5-0.1-1-0.3-1.4
			c-0.2-0.4-0.4-0.7-0.7-0.9c-0.3-0.2-0.7-0.3-1.1-0.3c-0.4,0-0.8,0.1-1.1,0.3c-0.3,0.2-0.6,0.5-0.7,0.9c-0.2,0.4-0.3,0.8-0.3,1.4
			s0.1,1,0.3,1.4c0.2,0.4,0.4,0.7,0.7,0.9c0.3,0.2,0.7,0.3,1.1,0.3c0.4,0,0.8-0.1,1.1-0.3c0.3-0.2,0.6-0.5,0.7-0.9
			C79.8,36.1,79.9,35.6,79.9,35z"/>
		<path class="st1" d="M90.3,33.9h-1.8c0-0.2-0.1-0.4-0.2-0.6c-0.1-0.2-0.2-0.3-0.4-0.4c-0.2-0.1-0.3-0.2-0.5-0.3
			c-0.2-0.1-0.4-0.1-0.7-0.1c-0.4,0-0.8,0.1-1.1,0.3c-0.3,0.2-0.6,0.5-0.7,0.9c-0.2,0.4-0.3,0.8-0.3,1.4c0,0.6,0.1,1,0.3,1.4
			c0.2,0.4,0.4,0.7,0.7,0.9c0.3,0.2,0.7,0.3,1.1,0.3c0.2,0,0.5,0,0.7-0.1c0.2-0.1,0.4-0.1,0.5-0.3c0.2-0.1,0.3-0.3,0.4-0.4
			c0.1-0.2,0.2-0.3,0.2-0.6l1.8,0c0,0.4-0.2,0.7-0.3,1c-0.2,0.3-0.4,0.6-0.7,0.9c-0.3,0.3-0.7,0.5-1.1,0.6C87.7,39,87.2,39,86.7,39
			c-0.7,0-1.4-0.2-2-0.5c-0.6-0.3-1-0.8-1.4-1.4c-0.3-0.6-0.5-1.3-0.5-2.2c0-0.8,0.2-1.6,0.5-2.2c0.3-0.6,0.8-1,1.4-1.4
			c0.6-0.3,1.2-0.5,2-0.5c0.5,0,0.9,0.1,1.3,0.2c0.4,0.1,0.8,0.3,1.1,0.6c0.3,0.2,0.6,0.5,0.8,0.9C90.1,33,90.2,33.4,90.3,33.9z"/>
		<path class="st1" d="M96,33.4c0-0.3-0.2-0.5-0.4-0.7s-0.6-0.3-1-0.3c-0.3,0-0.5,0-0.7,0.1c-0.2,0.1-0.3,0.2-0.5,0.3
			c-0.1,0.1-0.2,0.3-0.2,0.4c0,0.1,0,0.3,0.1,0.4c0.1,0.1,0.2,0.2,0.3,0.3c0.1,0.1,0.3,0.1,0.4,0.2c0.2,0.1,0.3,0.1,0.5,0.1l0.7,0.2
			c0.4,0.1,0.7,0.2,1,0.3c0.3,0.1,0.6,0.3,0.8,0.5c0.2,0.2,0.4,0.4,0.5,0.7c0.1,0.3,0.2,0.5,0.2,0.9c0,0.5-0.1,0.9-0.4,1.2
			c-0.3,0.3-0.6,0.6-1.1,0.8c-0.5,0.2-1.1,0.3-1.7,0.3c-0.7,0-1.2-0.1-1.7-0.3c-0.5-0.2-0.9-0.5-1.2-0.9c-0.3-0.4-0.4-0.9-0.4-1.4
			H93c0,0.3,0.1,0.5,0.2,0.7c0.1,0.2,0.3,0.3,0.6,0.4c0.2,0.1,0.5,0.1,0.8,0.1c0.3,0,0.6,0,0.8-0.1c0.2-0.1,0.4-0.2,0.5-0.3
			c0.1-0.1,0.2-0.3,0.2-0.5c0-0.2-0.1-0.3-0.2-0.4c-0.1-0.1-0.3-0.2-0.5-0.3c-0.2-0.1-0.5-0.2-0.8-0.2l-0.9-0.2
			c-0.7-0.2-1.2-0.4-1.7-0.7c-0.4-0.3-0.6-0.8-0.6-1.4c0-0.5,0.1-0.9,0.4-1.2c0.3-0.4,0.6-0.6,1.1-0.8c0.5-0.2,1-0.3,1.6-0.3
			c0.6,0,1.1,0.1,1.6,0.3c0.5,0.2,0.8,0.5,1.1,0.8c0.3,0.4,0.4,0.8,0.4,1.2H96z"/>
		<g>
			<g>
				<g>
					<path d="M6.5,15.5c-1.1,0-2.4,0.5-3.1,1.6l-0.2-1.3H0.9v13.7h2.4v-5.2c0.7,1.1,2.2,1.4,3.2,1.4c3.1,0,4.9-2.2,4.9-5.1
						C11.4,17.7,9.5,15.5,6.5,15.5z M6.3,23.3c-1.6,0-2.8-1.2-2.8-2.8c0-1.5,1-2.8,2.8-2.8C8,17.8,9,19,9,20.6
						C9,22.1,7.9,23.3,6.3,23.3z M18.7,15.5c-0.1,0-0.2,0-0.3,0c-0.3,0-0.6,0-0.9,0.1c-0.7,0.1-1.3,0.5-1.9,1.3l-0.2-1.1h-2.2v9.7
						h2.4v-5.1c0-1.4,0.7-2.1,1.6-2.4c0.2-0.1,0.5-0.1,0.8-0.1c0.1,0,0.2,0,0.2,0c0.6,0,1.1,0.3,1.5,0.6l0.5-1l0.5-0.9l0.1-0.2
						C20.4,15.9,19.5,15.5,18.7,15.5z"/>
				</g>
				<g>
					<path class="st1" d="M26.3,15.5c-1.6,0-2.9,0.6-3.8,1.6c1.1,0.2,2.4,0.4,3.8,0.4c1.4,0,2.7-0.1,3.8-0.3
						C29.2,16.1,27.9,15.5,26.3,15.5z M26.3,24.3c-1.4,0-2.7-0.1-3.9-0.3c0.9,1,2.2,1.7,3.9,1.7s3-0.7,3.9-1.7
						C29.1,24.1,27.7,24.3,26.3,24.3z M26.3,21.3c-1.9,0-3.6-0.2-5-0.6c0,0.8,0.2,1.5,0.4,2.1c1.3,0.3,2.8,0.5,4.6,0.5
						c1.8,0,3.3-0.2,4.6-0.5c0.3-0.6,0.4-1.4,0.4-2.1C29.9,21,28.2,21.3,26.3,21.3z M30.7,18c-1.3,0.3-2.8,0.4-4.4,0.4
						c-1.6,0-3.1-0.2-4.4-0.5c-0.3,0.5-0.5,1.1-0.6,1.7c1.3,0.4,3,0.6,5,0.6c1.9,0,3.6-0.3,5-0.6C31.2,19,31,18.5,30.7,18z"/>
				</g>
				<g>
					<path d="M40.7,11.7V17c-0.6-1-2.2-1.6-3.2-1.6c-1.2,0-2.3,0.3-3.2,1c0,0,0,0,0,0c-0.8,0.6-1.4,1.5-1.6,2.7
						c-0.1,0.3-0.1,0.7-0.1,1.1c0,0.1,0,0.2,0,0.3c0,0.6,0.1,1.1,0.2,1.6c0.1,0.3,0.2,0.6,0.3,0.9c0.8,1.7,2.5,2.6,4.5,2.6
						c1.2,0,2.4-0.4,3.1-1.6l0.2,1.3h2.2V11.7C43.1,11.7,40.7,11.7,40.7,11.7z M37.7,23.4c-1.2,0-2.2-0.7-2.6-1.9
						c-0.1-0.3-0.1-0.6-0.1-1c0-0.1,0-0.2,0-0.2c0.1-1.6,1.3-2.6,2.7-2.6c1.5,0,2.8,1.1,2.8,2.8C40.5,22.3,39.2,23.4,37.7,23.4z
						 M52.2,15.7v5c0,1.5-1,2.7-2.5,2.7c-1.5,0-2.3-1.1-2.3-2.6v-5.1H45v5.1c0,3,1.7,4.8,4,4.8c1.4,0,2.3-0.5,3.3-1.5l0.2,1.3h2.1
						v-9.7H52.2z M63.4,22.6c-0.6,0.6-1.4,0.8-2.1,0.8c-1.5,0-2.8-1-2.8-2.8c0-1.7,1.2-2.9,2.8-2.9c0.7,0,1.4,0.3,1.9,0.8l1.5-1.6
						c-1.1-1-2.1-1.4-3.5-1.4c-2.8,0-5.1,1.7-5.1,5.1c0,3.4,2.3,5.1,5.1,5.1c1.4,0,2.6-0.4,3.7-1.5L63.4,22.6z M71.9,23.1
						c-0.4,0.2-0.8,0.3-1.2,0.3c-0.7,0-1.3-0.5-1.3-1.4v-4.2h2.7v-2.1h-2.7V13l-2.4,0.3v2.5h-1.8v2.1h1.8V22c0,2.4,1.4,3.6,3.5,3.5
						c0.7,0,1.3-0.1,2-0.4L71.9,23.1L71.9,23.1z"/>
				</g>
				<g>
					<path class="st1" d="M84.2,11.6v6.2c-0.8-1.6-2.4-2.3-4-2.3c-2.7,0-4.9,1.8-4.9,5c0,3.2,2.1,5,4.9,5c1.7,0,3.2-0.8,4-2.3v2.1
						h0.9V11.6H84.2z M80.2,24.6c-2.2,0-4-1.4-4-4.1c0-2.7,1.8-4.1,4-4.1c2.2,0,4,1.7,4,4.1C84.1,22.9,82.4,24.6,80.2,24.6z
						 M92.8,15.5c-1.7,0-3.2,0.7-4,2.3v-6.2h-0.9v13.8h0.9v-2.1c0.8,1.5,2.4,2.3,4.1,2.3c2.7,0,4.9-1.8,4.9-5
						C97.7,17.3,95.6,15.5,92.8,15.5L92.8,15.5z M92.8,24.6c-2.3,0-4-1.7-4-4.1c0-2.4,1.7-4.1,4-4.1c2.2,0,4,1.4,4,4.1
						C96.8,23.2,95,24.6,92.8,24.6z"/>
				</g>
			</g>
		</g>
	</g>
</g>
</svg>
